name processed_emg_signals
nRows=100
nColumns=7
 
endheader
time	LGLTMED	LRF	LADDLONG	LST	LTA	LGM
0.58	0.4452474458199633	0.3256530501747247	0.3550136119866571	0.1416771177241211	0.0946615579308832	0.1384391170312423
0.581	0.4412673062117284	0.319744831966782	0.3507785501856096	0.1447423047995879	0.0944947695814876	0.1394293377935251
0.582	0.4372556669352815	0.3138626875445064	0.3465910641532325	0.1478753088931176	0.0943214690711594	0.1405644347732982
0.583	0.4332143820219628	0.3080095551787408	0.342453783321914	0.1510753378235928	0.0941413600300553	0.141847256154152
0.584	0.4291452911074283	0.3021883352210586	0.3383693080537098	0.154341544805301	0.0939541348211942	0.1432805900585296
0.585	0.4250502188609294	0.2964018869686184	0.3343402069963487	0.157673029418779	0.0937594747198496	0.1448671593111874
0.586	0.4209309745257521	0.2906530255883437	0.3303690144529433	0.1610688386887495	0.0935570501359151	0.1466096161342232
0.587	0.4167893515656653	0.2849445190998441	0.3264582277675931	0.1645279682689838	0.0933465208812323	0.1485105367856489
0.588	0.4126271274117364	0.2792790854164227	0.3226103047295178	0.1680493637334796	0.0931275364837456	0.1505724161537893
0.589	0.4084460633036513	0.2736593894440925	0.3188276609977825	0.171631921972801	0.0928997365502265	0.152797662320098
0.59	0.4042479042194005	0.2680880402393	0.3151126675499733	0.1752744926941667	0.0926627511792059	0.1551885911034579
0.591	0.4000343788866718	0.2625675882272411	0.3114676481585401	0.1789758800236509	0.0924162014256184	0.1577474205995701
0.592	0.395807199868905	0.2571005224837852	0.3078948768999517	0.1827348442085709	0.0921596998185435	0.1604762657293154
0.593	0.3915680637181467	0.2516892680848805	0.30439657570248	0.1865501034180065	0.0918928509332809	0.1633771328100114
0.594	0.3873186511860439	0.2463361835281228	0.3009749119390013	0.190420335638932	0.091615252018978	0.1664519141636984
0.595	0.3830606274833099	0.241043558231724	0.297631996071605	0.1943441806649908	0.0913264936827843	0.169702382776462
0.596	0.3787956425776998	0.2358136101168065	0.2943698793546385	0.1983202421744556	0.0910261606315211	0.1731301870230926
0.597	0.3745253315202007	0.2306484832793743	0.2911905516029113	0.202347089893433	0.0907138324716547	0.1767368454713132
0.598	0.370251314789237	0.2255502457584273	0.2880959390311068	0.20642326184005	0.0903890845683577	0.18052374177992
0.599	0.3659751986435064	0.2205208874068619	0.2850879021709297	0.2105472666449901	0.0900514889642994	0.1844921197050959
0.6	0.3616985754745207	0.2155623178715078	0.2821682338712943	0.2147175859435275	0.0897006153587235	0.1886430782291078
0.601	0.3574230241509856	0.2106763646884638	0.2793386573866159	0.2189326768340389	0.0893360321471744	0.1929775668253784
0.602	0.3531501103475912	0.2058647714992271	0.2766008245573242	0.2231909743977364	0.0889573075220842	0.1974963808736461
0.603	0.348881386851095	0.2011291963926293	0.2739563140859685	0.2274908942742413	0.0885640106342343	0.2022001572384851
0.604	0.3446183938369661	0.1964712103768634	0.2714066299115686	0.2318308352872357	0.0881557128149761	0.2070893700238962
0.605	0.3403626591097336	0.1918922959853185	0.2689531996845148	0.236209182114058	0.0877319888588455	0.2121643265161837
0.606	0.3361156983005035	0.1873938460191463	0.2665973733435058	0.2406243079926368	0.0872924183660527	0.2174251633266664
0.607	0.3318790150152284	0.1829771624290087	0.2643404217956288	0.2450745774586682	0.0868365871440121	0.2228718427452266
0.608	0.3276541009277893	0.1786434553377367	0.2621835356998921	0.249558349105523	0.0863640886668551	0.2285041493151756
0.609	0.3234424358123998	0.1743938422051431	0.2601278243540376	0.2540739783588676	0.0858745255915866	0.2343216866393537
0.61	0.3192454875104105	0.1702293471356705	0.2581743146837195	0.2586198202574848	0.0853675113293837	0.2403238744267948
0.611	0.3150647118270834	0.1661509003290196	0.2563239503334287	0.2631942322313199	0.0848426716702294	0.2465099457887164
0.612	0.3109015523541882	0.1621593376736802	0.2545775908579825	0.2677955768672182	0.0842996464590424	0.2528789447919962
0.613	0.3067574402143314	0.1582554004828447	0.2529360110140621	0.2724222246524662	0.0837380913211668	0.2594297242778219
0.614	0.3026337937231544	0.1544397353720552	0.2513999001505134	0.277072556685826	0.0831576794350332	0.2661609439528228
0.615	0.2985320179665633	0.1507128942776068	0.2499698616963601	0.2817449673456091	0.0825581033496181	0.2730710687595741
0.616	0.2944535042915093	0.1470753346145395	0.248646412744849	0.2864378669044451	0.0819390768441385	0.2801583675330127
0.617	0.2903996297112984	0.1435274195726677	0.24742998373181	0.2911496840804826	0.0813003368272551	0.2874209119486476
0.618	0.2863717562283597	0.1400694185490176	0.2463209182067655	0.2958788685151095	0.0806416452728082	0.2948565757677071
0.619	0.2823712300792634	0.1367015077145375	0.2453194726949592	0.300623893167693	0.0799627911888901	0.3024630343836507
0.62	0.2783993809076989	0.1334237707129093	0.2444258166490732	0.3053832566182373	0.0792635926169505	0.3102377646733584
0.621	0.2744575208716412	0.1302361994889066	0.2436400324891161	0.3101554852691476	0.0785438986573946	0.318178045155569
0.622	0.2705469436912008	0.1271386952436144	0.2429621157298271	0.3149391354374188	0.0778035915180875	0.3262809564579673
0.623	0.2666689236436895	0.1241310695136402	0.2423919751947262	0.3197327953287607	0.0770425885819891	0.3345433820934336
0.624	0.2628247145127224	0.1212130453712538	0.2419294333161362	0.3245350868854023	0.0762608444899983	0.3429620095449471
0.625	0.2590155484981561	0.1183842587421541	0.241574226520042	0.3293446675001693	0.07545835323495	0.351533331657597
0.626	0.2552426350936003	0.1156442598375537	0.2413260056948016	0.3341602315900741	0.0746351502624652	0.3602536483352238
0.627	0.2515071599385675	0.1129925146971025	0.2411843367427279	0.3389805120236867	0.0737913145742206	0.3691190685381385
0.628	0.2478102836523104	0.1104284068394913	0.2411487012144211	0.3438042813972819	0.0729269708289252	0.3781255125773185
0.629	0.244153140656344	0.1079512390174593	0.2412184970261854	0.3486303531551304	0.0720422914361562	0.3872687146994337
0.63	0.2405368379926167	0.1055602350742405	0.2413930392610158	0.3534575825495057	0.0711374986380081	0.3965442259560154
0.631	0.236962454143683	0.1032545418983168	0.2416715610539974	0.3582848674351946	0.0702128665732843	0.4059474173489919
0.632	0.2334310378610269	0.1010332314734375	0.2420532145626178	0.3631111488926556	0.0692687233188757	0.415473483243904
0.633	0.2299436070075389	0.0988953030206029	0.242537072022329	0.3679354116729558	0.0683054529027393	0.425117445040996
0.634	0.2265011474200915	0.0968396852286873	0.2431221268875738	0.3727566844568872	0.0673234972827658	0.4348741550934695
0.635	0.2231046117981159	0.0948652385699792	0.2438072950578807	0.3775740399200311	0.0663233582855986	0.4447383008614097
0.636	0.2197549186237756	0.0929707576970182	0.2445914161883807	0.3823865945952391	0.065305599499305	0.4547044092893389
0.637	0.2164529511191835	0.091154973916711	0.2454732550831681	0.3871935085240269	0.0642708481135867	0.4647668513948195
0.638	0.2131995562452849	0.0894165577377695	0.2464515031693348	0.3919939846887419	0.0632197967010719	0.4749198470552784
0.639	0.209995543746969	0.0877541214873639	0.2475247800489182	0.3967872682178945	0.0621532049331444	0.4851574699798876
0.64	0.2068416852480005	0.0861662219927567	0.2486916351253949	0.4015726453582343	0.0610719012237917	0.4954736528537218
0.641	0.2037387133994719	0.0846513633238392	0.2499505493014773	0.4063494422093929	0.0599767842950066	0.5058621926419317
0.642	0.2006873210848507	0.0832079995922347	0.2512999367445429	0.4111170232194892	0.058868824657493	0.5163167560426613
0.643	0.1976881606847012	0.0818345378028288	0.2527381467159985	0.4158747894428558	0.0577490660006549	0.526830885078581
0.644	0.1947418434039165	0.0805293407533488	0.2542634654609246	0.4206221765636632	0.0566186264861063	0.5373980028181339
0.645	0.191848938664063	0.079290729977593	0.2558741181539752	0.4253586526916637	0.0554786999390564	0.5480114192190362
0.646	0.1890099735627828	0.0781169887279932	0.2575682708978872	0.4300837159386525	0.054330556932015	0.5586643370874526
0.647	0.1862254324023004	0.0770063649931164	0.2593440327708071	0.4347968917855973	0.0531755457554631	0.5693498581474333
0.648	0.1834957562885851	0.0759570745458882	0.2611994579189788	0.4394977302510455	0.0520150932703584	0.5800609892158879
0.649	0.1808213428024693	0.0749673040182871	0.2631325476916298	0.4441858028713353	0.0508507056376848	0.5907906484791894
0.65	0.1782025457439546	0.0740352139984034	0.2651412528154514	0.448860699503442	0.0496839689205061	0.6015316718671404
0.651	0.1756396749505044	0.073158942145569	0.2672234756064773	0.4535220249617563	0.0485165495541507	0.6122768195194331
0.652	0.1731329961898933	0.0723366063194833	0.2693770722173597	0.4581693955009283	0.0473501946804062	0.623018782338322
0.653	0.1706827311280468	0.0715663077190746	0.2715998549181634	0.4628024351579423	0.0461867323417597	0.6337501886204454
0.654	0.1682890573718709	0.0708461340269225	0.2738895944089822	0.4674207719678112	0.0450280715318005	0.6444636107597032
0.655	0.1659521085866236	0.070174162555243	0.2762440221629437	0.4720240340684066	0.0438762020979779	0.6551515720126267
0.656	0.1636719746869839	0.0695484633893007	0.2786608327986318	0.4766118457115134	0.0427331944928946	0.6658065533170104
0.657	0.1614487021003577	0.0689671025244254	0.2811376864813559	0.4811838231985583	0.0416011993703886	0.6764210001541451
0.658	0.1592822941007864	0.0684281449926089	0.2836722113529828	0.4857395707607129	0.0404824470228286	0.6869873294446877
0.659	0.1571727112114423	0.0679296579747428	0.2862620059900133	0.4902786764038835	0.0393792466560738	0.6974979364685161
0.66	0.1551198716738101	0.0674697138945737	0.2889046418898507	0.4948007077396408	0.0382939854986482	0.7079452018003282
0.661	0.1531236519812196	0.0670463934904383	0.2915976659848565	0.499305207823446	0.0372291277416768	0.718321498254952
0.662	0.1511838874746912	0.0666577888608768	0.2943386031837194	0.5037916910216704	0.0361872133062142	0.7286191978386111
0.663	0.1493003729984639	0.0663020064801633	0.2971249589388624	0.5082596389288868	0.0351708564347155	0.7388306787038206
0.664	0.1474728636128775	0.0659771701796517	0.2999542218380333	0.5127084963564492	0.0341827441037423	0.7489483321060152
0.665	0.1457010753621008	0.0656814240907805	0.3028238662175468	0.5171376674127763	0.0332256342552876	0.7589645693592952
0.666	0.1439846860940278	0.0654129355455319	0.3057313547941003	0.5215465116947785	0.0323023538446485	0.7688718287878589
0.667	0.1423233363301443	0.0651698979301759	0.3086741413118873	0.5259343406084925	0.031415796703179	0.7786625826691891
0.668	0.1407166301826971	0.0649505334883641	0.3116496732014679	0.5303004138354105	0.0305689212146854	0.7883293441653814
0.669	0.1391641363167295	0.0647530960697415	0.3146553942472575	0.5346439359592652	0.02976474780466	0.7978646742399821
0.67	0.1376653889542026	0.0645758738204294	0.3176887472604286	0.5389640532666624	0.0290063562419455	0.8072611885594674
0.671	0.1362198889175393	0.0644171918118066	0.3207471767547256	0.543259850733762	0.0282968827529008	0.8165115643804466
0.672	0.1348271047096092	0.0642754146040843	0.3238281316223828	0.5475303492104308	0.0276395169485746	0.825608547425915
0.673	0.1334864736271379	0.0641489487412272	0.3269290678077504	0.5517745028128203	0.0270374985658442	0.8345449587552447
0.674	0.132197402904663	0.0640362451738088	0.3300474509757398	0.5559911965350991	0.0264941140237975	0.8433137016335468
0.675	0.130959270885625	0.0639358016065794	0.3331807591723058	0.5601792440910035	0.0260126927970606	0.8519077684058122
0.676	0.1297714282174575	0.0638461647675617	0.3363264854735422	0.5643373859956947	0.0255966036083294	0.8603202473806276
0.677	0.1286331990671582	0.06376593259566	0.3394821406197564	0.5684642878981531	0.0252492504429634	0.8685443297269521
0.678	0.1275438823539542	0.0636937563437666	0.3426452556301499	0.5725585391734306	0.024974068389115	0.8765733163859414
0.679	0.1265027529955502	0.0636283425946886	0.3458133843932804	0.5766186517830006	0.0247745193072909	0.8844006249980952
